<svg width="29" height="29" viewBox="0 0 29 29" fill="none" xmlns="http://www.w3.org/2000/svg">
<path d="M14.4 2.3999C12.8242 2.3999 11.2637 2.71029 9.80782 3.31335C8.35192 3.9164 7.02905 4.80032 5.91474 5.91462C3.66431 8.16506 2.40002 11.2173 2.40002 14.3999C2.40002 19.7039 5.84402 24.2039 10.608 25.7999C11.208 25.8959 11.4 25.5239 11.4 25.1999V23.1719C8.07602 23.8919 7.36802 21.5639 7.36802 21.5639C6.81602 20.1719 6.03602 19.7999 6.03602 19.7999C4.94402 19.0559 6.12002 19.0799 6.12002 19.0799C7.32002 19.1639 7.95602 20.3159 7.95602 20.3159C9.00002 22.1399 10.764 21.5999 11.448 21.3119C11.556 20.5319 11.868 20.0039 12.204 19.7039C9.54002 19.4039 6.74402 18.3719 6.74402 13.7999C6.74402 12.4679 7.20002 11.3999 7.98002 10.5479C7.86002 10.2479 7.44002 8.9999 8.10002 7.3799C8.10002 7.3799 9.10802 7.0559 11.4 8.6039C12.348 8.3399 13.38 8.2079 14.4 8.2079C15.42 8.2079 16.452 8.3399 17.4 8.6039C19.692 7.0559 20.7 7.3799 20.7 7.3799C21.36 8.9999 20.94 10.2479 20.82 10.5479C21.6 11.3999 22.056 12.4679 22.056 13.7999C22.056 18.3839 19.248 19.3919 16.572 19.6919C17.004 20.0639 17.4 20.7959 17.4 21.9119V25.1999C17.4 25.5239 17.592 25.9079 18.204 25.7999C22.968 24.1919 26.4 19.7039 26.4 14.3999C26.4 12.824 26.0896 11.2636 25.4866 9.8077C24.8835 8.35179 23.9996 7.02892 22.8853 5.91462C21.771 4.80032 20.4481 3.9164 18.9922 3.31335C17.5363 2.71029 15.9759 2.3999 14.4 2.3999Z" fill="#DADADA"/>
</svg>
